<?xml version="1.0" standalone="no"?>
<!DOCTYPE svg PUBLIC "-//W3C//DTD SVG 20010904//EN"
 "http://www.w3.org/TR/2001/REC-SVG-20010904/DTD/svg10.dtd">
<svg version="1.0" xmlns="http://www.w3.org/2000/svg"
 width="397.000000pt" height="396.000000pt" viewBox="0 0 397.000000 396.000000"
 preserveAspectRatio="xMidYMid meet">

<g transform="translate(0.000000,396.000000) scale(0.100000,-0.100000)"
fill="#000000" stroke="none">
<path d="M1855 3613 c-404 -35 -769 -205 -1055 -493 -277 -277 -437 -619 -472
-1006 -69 -764 435 -1482 1196 -1704 169 -49 293 -63 506 -57 280 8 476 58
720 183 461 236 771 643 872 1146 32 162 32 434 0 596 -88 438 -331 800 -707
1051 -312 209 -708 315 -1060 284z m119 -435 c3 -13 6 -300 6 -639 l0 -617
231 -7 231 -7 15 -35 c24 -58 97 -128 166 -158 220 -99 469 63 469 305 0 291
-343 444 -557 248 -29 -26 -63 -69 -77 -95 l-24 -48 -132 -3 -132 -3 2 533 3
533 38 -3 c63 -5 206 -50 303 -96 338 -160 581 -470 666 -847 42 -190 25 -513
-34 -637 l-13 -27 -667 -3 -667 -2 -32 60 c-82 155 -257 224 -419 165 -76 -27
-168 -119 -195 -195 -59 -165 13 -343 171 -421 53 -26 75 -31 136 -31 132 -1
235 58 301 170 l33 57 585 3 c321 1 599 0 617 -3 19 -4 32 -12 32 -21 0 -26
-81 -136 -167 -225 -184 -191 -407 -310 -663 -355 -141 -24 -391 -15 -521 19
-407 107 -710 376 -852 757 -61 164 -72 233 -72 435 0 161 3 191 27 285 82
326 283 600 559 760 38 23 74 38 79 35 6 -4 10 -93 10 -228 l0 -222 -49 -23
c-117 -53 -202 -203 -187 -330 33 -284 371 -407 571 -207 159 159 114 442 -84
535 l-51 23 0 269 0 268 26 10 c43 17 176 38 245 39 61 1 67 -1 73 -21z m-391
-752 c119 -49 122 -206 5 -264 -56 -28 -104 -23 -150 16 -83 70 -73 176 21
239 39 26 77 29 124 9z m1256 -283 c14 -11 37 -40 50 -67 21 -42 22 -52 12
-86 -33 -112 -148 -153 -231 -83 -76 64 -80 153 -8 220 49 46 125 53 177 16z
m-1316 -527 c96 -41 123 -154 55 -232 -34 -38 -93 -59 -140 -49 -16 4 -45 20
-63 36 -62 55 -70 138 -18 200 46 55 106 71 166 45z"/>
</g>
</svg>
